<svg xmlns="http://www.w3.org/2000/svg" version="1.1" viewBox="0 0 44 44">
<!--
  DO WHAT THE FUCK YOU WANT TO PUBLIC LICENSE
  Version 2, December 2004

  Copyright (C) 2011 Christopher Williams <chris@iterativedesigns.com>,
                     Manuel Strehl <boldewyn@gmail.com>

  Everyone is permitted to copy and distribute verbatim or modified
  copies of this license document, and changing it is allowed as long
  as the name is changed.

  DO WHAT THE FUCK YOU WANT TO PUBLIC LICENSE
  TERMS AND CONDITIONS FOR COPYING, DISTRIBUTION AND MODIFICATION

  0. You just DO WHAT THE FUCK YOU WANT TO.
-->
<g id="logo">
	<rect id="background" fill="#FF6D00" width="44" height="44"/>
	<path id="j" fill="#FFFFFF" d="M11.569,36.77l3.367-2.037c0.649,1.151,1.24,2.125,2.658,2.125c1.359,0,2.215-0.531,2.215-2.598 V20.2h4.135v14.118c0,4.282-2.51,6.231-6.173,6.231C14.464,40.55,12.544,38.836,11.569,36.77"/>
	<path id="s" fill="#FFFFFF" d="M26.19,36.326l3.366-1.949c0.887,1.447,2.039,2.511,4.076,2.511c1.714,0,2.807-0.856,2.807-2.038 c0-1.418-1.123-1.92-3.014-2.746l-1.033-0.443c-2.982-1.27-4.962-2.865-4.962-6.232c0-3.101,2.362-5.464,6.056-5.464 c2.628,0,4.518,0.916,5.877,3.308l-3.22,2.068c-0.709-1.271-1.477-1.772-2.657-1.772c-1.211,0-1.979,0.769-1.979,1.772 c0,1.24,0.769,1.742,2.54,2.51l1.033,0.443c3.516,1.506,5.494,3.042,5.494,6.498c0,3.721-2.924,5.76-6.853,5.76 C29.883,40.551,27.401,38.719,26.19,36.326"/>
</g>
<g>
	<path fill="#FFFFFF" d="M3.45,6.754C3.78,6.688,4.44,6.63,5.076,6.63c0.768,0,1.239,0.074,1.644,0.314 C7.108,7.15,7.381,7.53,7.381,8.042c0,0.487-0.289,0.941-0.909,1.181v0.017c0.636,0.165,1.107,0.652,1.107,1.371 c0,0.511-0.231,0.908-0.578,1.181c-0.406,0.322-1.083,0.504-2.189,0.504c-0.62,0-1.082-0.042-1.363-0.083V6.754z M4.697,8.876 h0.413c0.669,0,1.017-0.272,1.017-0.686c0-0.421-0.323-0.643-0.893-0.643c-0.281,0-0.437,0.016-0.536,0.041V8.876z M4.697,11.346 c0.124,0.024,0.272,0.024,0.487,0.024c0.569,0,1.074-0.222,1.074-0.81c0-0.561-0.504-0.784-1.131-0.784h-0.43V11.346z"/>
	<path fill="#FFFFFF" d="M11.785,11.263c0,0.38,0.017,0.751,0.065,0.975h-1.131l-0.074-0.405H10.62 c-0.265,0.321-0.677,0.496-1.156,0.496c-0.817,0-1.304-0.595-1.304-1.239c0-1.048,0.941-1.544,2.37-1.544V9.496 c0-0.215-0.115-0.521-0.736-0.521c-0.412,0-0.85,0.142-1.114,0.298L8.449,8.472c0.281-0.157,0.834-0.363,1.569-0.363 c1.346,0,1.767,0.792,1.767,1.742V11.263z M10.571,10.33c-0.661,0-1.174,0.156-1.174,0.636c0,0.321,0.216,0.479,0.496,0.479 c0.306,0,0.57-0.207,0.653-0.462c0.017-0.066,0.025-0.141,0.025-0.216V10.33z"/>
	<path fill="#FFFFFF" d="M12.786,9.487c0-0.504-0.016-0.925-0.032-1.288h1.09l0.058,0.562h0.025 c0.165-0.265,0.569-0.652,1.247-0.652c0.826,0,1.445,0.553,1.445,1.742v2.387h-1.256V9.999c0-0.52-0.181-0.875-0.635-0.875 c-0.347,0-0.554,0.239-0.644,0.471c-0.033,0.083-0.042,0.198-0.042,0.314v2.329h-1.256V9.487z"/>
	<path fill="#FFFFFF" d="M21.452,11.65c0,0.776-0.157,1.412-0.619,1.817c-0.439,0.38-1.041,0.496-1.636,0.496 c-0.537,0-1.09-0.107-1.453-0.305l0.247-0.958c0.256,0.148,0.694,0.306,1.173,0.306c0.595,0,1.049-0.313,1.049-1.065v-0.257h-0.017 c-0.239,0.331-0.628,0.521-1.09,0.521c-1,0-1.71-0.811-1.71-1.966c0-1.304,0.834-2.13,1.833-2.13c0.554,0,0.901,0.239,1.107,0.569 h0.016l0.041-0.479h1.09c-0.016,0.264-0.032,0.603-0.032,1.205V11.65z M20.197,9.842c0-0.075-0.009-0.156-0.025-0.231 c-0.09-0.331-0.331-0.553-0.678-0.553c-0.461,0-0.825,0.413-0.825,1.148c0,0.603,0.297,1.074,0.818,1.074 c0.33,0,0.586-0.215,0.669-0.503c0.032-0.1,0.041-0.231,0.041-0.339V9.842z"/>
	<path fill="#FFFFFF" d="M25.822,11.263c0,0.38,0.02,0.751,0.066,0.975h-1.13l-0.075-0.405h-0.025 c-0.264,0.321-0.676,0.496-1.155,0.496c-0.815,0-1.305-0.595-1.305-1.239c0-1.048,0.941-1.544,2.371-1.544V9.496 c0-0.215-0.117-0.521-0.737-0.521c-0.411,0-0.849,0.142-1.114,0.298l-0.23-0.801c0.28-0.157,0.834-0.363,1.568-0.363 c1.346,0,1.767,0.792,1.767,1.742V11.263z M24.61,10.33c-0.66,0-1.175,0.156-1.175,0.636c0,0.321,0.216,0.479,0.497,0.479 c0.306,0,0.569-0.207,0.652-0.462c0.016-0.066,0.025-0.141,0.025-0.216V10.33z"/>
	<path fill="#FFFFFF" d="M26.825,6.374h1.257v5.864h-1.257V6.374z"/>
	<path fill="#FFFFFF" d="M30.948,12.328c-1.182,0-2.088-0.777-2.088-2.081c0-1.305,0.856-2.139,2.161-2.139 c1.23,0,2.057,0.85,2.057,2.073c0,1.469-1.048,2.147-2.124,2.147H30.948z M30.974,11.428c0.497,0,0.801-0.487,0.801-1.214 c0-0.594-0.233-1.206-0.801-1.206c-0.595,0-0.826,0.612-0.826,1.214c0,0.686,0.289,1.206,0.816,1.206H30.974z"/>
	<path fill="#FFFFFF" d="M33.865,9.528c0-0.594-0.008-0.982-0.033-1.329h1.074l0.051,0.751h0.033 c0.205-0.595,0.691-0.842,1.088-0.842c0.115,0,0.176,0.008,0.266,0.024v1.181c-0.107-0.016-0.207-0.034-0.346-0.034 c-0.467,0-0.775,0.24-0.861,0.636c-0.016,0.083-0.023,0.174-0.023,0.28v2.041h-1.256L33.865,9.528z"/>
	<path fill="#FFFFFF" d="M37.908,10.61c0.039,0.528,0.553,0.776,1.139,0.776c0.428,0,0.777-0.058,1.115-0.173l0.164,0.851 c-0.41,0.174-0.918,0.256-1.463,0.256c-1.369,0-2.152-0.792-2.152-2.064c0-1.023,0.645-2.155,2.037-2.155 c1.305,0,1.803,1.016,1.803,2.015c0,0.215-0.025,0.405-0.043,0.504L37.908,10.61z M39.385,9.752c0-0.298-0.133-0.817-0.701-0.817 c-0.537,0-0.752,0.487-0.783,0.817H39.385z"/>
</g>
</svg>
