<?xml version="1.0" encoding="utf-8"?>
<!DOCTYPE svg PUBLIC "-//W3C//DTD SVG 1.1//EN" "http://www.w3.org/Graphics/SVG/1.1/DTD/svg11.dtd">
<svg version="1.1" id="Layer_1" xmlns="http://www.w3.org/2000/svg" xmlns:xlink="http://www.w3.org/1999/xlink" x="0px" y="0px"
   width="2592px" height="5184px" viewBox="0 0 2592 5184" enable-background="new 0 0 2592 5184" xml:space="preserve">
<rect x="-124.515" y="-49.667" fill="#F36E21" width="2833.333" height="5393.332"/>
<text transform="matrix(1 0 0 1 352.1626 3158.665)"><tspan x="0" y="0" fill="#FFFFFF" font-family="'MyriadPro-Bold'" font-size="200">Bangalore JavaScript</tspan><tspan x="417.498" y="240" fill="#FFFFFF" font-family="'MyriadPro-Bold'" font-size="200">Community</tspan></text>
<g>
	<g id="logo">
		<rect id="background" x="230.517" y="412" fill="#F36E21" width="2123.27" height="2123.27"/>
		<path id="j" fill="#FFFFFF" d="M788.792,2186.379l162.479-98.299c31.319,55.544,59.838,102.544,128.266,102.544
			c65.579,0,106.887-25.624,106.887-125.369v-678.48h199.538v681.279c0,206.632-121.122,300.686-297.884,300.686
			C928.494,2368.786,835.841,2286.077,788.792,2186.379"/>
		<path id="s" fill="#FFFFFF" d="M1494.345,2164.952l162.429-94.053c42.805,69.828,98.397,121.171,196.694,121.171
			c82.71,0,135.452-41.304,135.452-98.346c0-68.426-54.189-92.65-145.442-132.511l-49.85-21.376
			c-143.898-61.287-239.445-138.254-239.445-300.732c0-149.642,113.981-263.673,292.239-263.673
			c126.814,0,218.023,44.203,283.602,159.632l-155.387,99.796c-34.213-61.335-71.271-85.513-128.215-85.513
			c-58.438,0-95.501,37.11-95.501,85.513c0,59.836,37.109,84.062,122.571,121.12l49.848,21.379
			c169.668,72.674,265.122,146.796,265.122,313.566c0,179.562-141.101,277.956-330.7,277.956
			C1672.555,2368.833,1552.782,2280.428,1494.345,2164.952"/>
	</g>
	<g>
		<path fill="#FFFFFF" d="M397,737.921c15.925-3.185,47.774-5.983,78.465-5.983c37.061,0,59.79,3.571,79.333,15.153
			c18.724,9.941,31.897,28.278,31.897,52.985c0,23.501-13.947,45.408-43.865,56.99v0.821c30.691,7.962,53.42,31.463,53.42,66.158
			c0,24.659-11.147,43.816-27.893,56.992c-19.591,15.537-52.261,24.32-105.632,24.32c-29.918,0-52.214-2.027-65.772-4.006v-263.43
			H397z M457.176,840.321h19.931c32.283,0,49.076-13.125,49.076-33.103c0-20.316-15.587-31.03-43.093-31.03
			c-13.561,0-21.089,0.773-25.866,1.979v62.154H457.176z M457.176,959.514c5.983,1.158,13.126,1.158,23.5,1.158
			c27.459,0,51.827-10.712,51.827-39.088c0-27.07-24.32-37.833-54.576-37.833h-20.751V959.514z"/>
		<path fill="#FFFFFF" d="M799.215,955.509c0,18.336,0.822,36.241,3.138,47.05h-54.579l-3.569-19.544h-1.208
			c-12.786,15.491-32.67,23.936-55.782,23.936c-39.426,0-62.928-28.712-62.928-59.789c0-50.573,45.409-74.507,114.368-74.507v-2.414
			c0-10.375-5.55-25.141-35.517-25.141c-19.882,0-41.019,6.853-53.757,14.38l-11.147-38.653
			c13.56-7.576,40.245-17.517,75.714-17.517c64.952,0,85.268,38.218,85.268,84.062V955.509L799.215,955.509z M740.633,910.485
			c-31.898,0-56.653,7.529-56.653,30.693c0,15.49,10.423,23.113,23.935,23.113c14.768,0,27.507-9.988,31.512-22.293
			c0.821-3.185,1.207-6.805,1.207-10.424V910.485z"/>
		<path fill="#FFFFFF" d="M847.521,869.806c0-24.321-0.772-44.636-1.545-62.154h52.6l2.799,27.12h1.206
			c7.962-12.787,27.457-31.462,60.175-31.462c39.859,0,69.73,26.685,69.73,84.062v115.188h-60.609V894.514
			c0-25.094-8.733-42.224-30.643-42.224c-16.746,0-26.734,11.533-31.077,22.727c-1.593,4.007-2.026,9.556-2.026,15.153v112.388
			h-60.609V869.806L847.521,869.806z"/>
		<path fill="#FFFFFF" d="M1265.707,974.185c0,37.446-7.576,68.138-29.871,87.68c-21.184,18.338-50.234,23.937-78.947,23.937
			c-25.914,0-52.598-5.164-70.115-14.72l11.918-46.229c12.355,7.143,33.492,14.766,56.605,14.766
			c28.712,0,50.62-15.104,50.62-51.392v-12.402h-0.819c-11.533,15.973-30.306,25.142-52.6,25.142
			c-48.256,0-82.518-39.137-82.518-94.872c0-62.926,40.244-102.785,88.453-102.785c26.734,0,43.48,11.533,53.42,27.457h0.771
			l1.978-23.115h52.601c-0.772,12.741-1.545,29.099-1.545,58.149v108.384H1265.707z M1205.146,886.938
			c0-3.62-0.434-7.528-1.206-11.148c-4.344-15.973-15.973-26.686-32.717-26.686c-22.246,0-39.812,19.93-39.812,55.398
			c0,29.098,14.332,51.828,39.474,51.828c15.926,0,28.279-10.375,32.283-24.272c1.545-4.826,1.979-11.146,1.979-16.359V886.938
			L1205.146,886.938z"/>
		<path fill="#FFFFFF" d="M1476.586,955.509c0,18.336,0.966,36.241,3.184,47.05h-54.527l-3.618-19.544h-1.206
			c-12.74,15.491-32.625,23.936-55.737,23.936c-39.329,0-62.975-28.712-62.975-59.789c0-50.573,45.41-74.507,114.415-74.507v-2.414
			c0-10.375-5.645-25.141-35.564-25.141c-19.833,0-40.969,6.853-53.759,14.38l-11.096-38.653
			c13.512-7.576,40.243-17.517,75.662-17.517c64.954,0,85.271,38.218,85.271,84.062v68.138H1476.586z M1418.101,910.485
			c-31.849,0-56.7,7.529-56.7,30.693c0,15.49,10.421,23.113,23.981,23.113c14.768,0,27.46-9.988,31.464-22.293
			c0.773-3.185,1.207-6.805,1.207-10.424v-21.089H1418.101z"/>
		<path fill="#FFFFFF" d="M1524.987,719.585h60.657v282.974h-60.657V719.585z"/>
		<path fill="#FFFFFF" d="M1723.949,1006.901c-57.041,0-100.762-37.495-100.762-100.421c0-62.974,41.308-103.22,104.281-103.22
			c59.355,0,99.265,41.018,99.265,100.034c0,70.89-50.574,103.606-102.496,103.606H1723.949z M1725.202,963.471
			c23.984,0,38.651-23.501,38.651-58.583c0-28.663-11.242-58.197-38.651-58.197c-28.714,0-39.86,29.534-39.86,58.583
			c0,33.103,13.945,58.197,39.377,58.197H1725.202z"/>
		<path fill="#FFFFFF" d="M1864.71,871.784c0-28.665-0.386-47.387-1.593-64.133h51.828l2.46,36.241h1.593
			c9.893-28.712,33.345-40.631,52.504-40.631c5.551,0,8.49,0.386,12.834,1.158v56.99c-5.162-0.771-9.987-1.64-16.695-1.64
			c-22.535,0-37.398,11.58-41.549,30.69c-0.772,4.005-1.107,8.396-1.107,13.512v98.49h-60.613L1864.71,871.784z"/>
		<path fill="#FFFFFF" d="M2059.81,923.996c1.884,25.48,26.688,37.449,54.964,37.449c20.655,0,37.496-2.8,53.808-8.348l7.914,41.065
			c-19.786,8.396-44.3,12.353-70.601,12.353c-66.062,0-103.85-38.219-103.85-99.601c0-49.365,31.127-103.99,98.299-103.99
			c62.975,0,87.006,49.027,87.006,97.234c0,10.375-1.206,19.544-2.073,24.321L2059.81,923.996z M2131.084,882.594
			c0-14.38-6.417-39.425-33.826-39.425c-25.915,0-36.29,23.5-37.787,39.425H2131.084z"/>
	</g>
	
		<rect x="230.517" y="412" fill="none" stroke="#FFFFFF" stroke-width="10" stroke-miterlimit="10" width="2123.27" height="2123.27"/>
</g>
<text transform="matrix(1 0 0 1 695.04 3925.9297)" fill="#FFFFFF" font-family="'MyriadPro-Bold'" font-size="120">http://bangalorejs.org</text>
</svg>
